fd_2_states
version=1
nRows=23
nColumns=17
inDegrees=yes

# SIMM Motion File Header:
name fd_2_states
datacolumns 17
datarows 23
otherdata 1
range 0.355613 0.369373
endheader
time	/jointset/r_shoulder/r_shoulder_elev/value	/jointset/r_shoulder/r_shoulder_elev/speed	/jointset/r_elbow/r_elbow_flex/value	/jointset/r_elbow/r_elbow_flex/speed	/forceset/TRIlong/activation	/forceset/TRIlong/fiber_length	/forceset/TRIlat/activation	/forceset/TRIlat/fiber_length	/forceset/TRImed/activation	/forceset/TRImed/fiber_length	/forceset/BIClong/activation	/forceset/BIClong/fiber_length	/forceset/BICshort/activation	/forceset/BICshort/fiber_length	/forceset/BRA/activation	/forceset/BRA/fiber_length
      0.355613	     -5.840881	     27.840887	     92.692951	    286.228490	      0.021587	      0.166863	      0.186915	      0.103871	      0.183798	      0.098935	      0.871875	      0.095768	      0.352810	      0.095238	      0.022444	      0.067721
      0.356343	     -5.820420	     28.222533	     92.901787	    286.001324	      0.021572	      0.166978	      0.188614	      0.103937	      0.185478	      0.099001	      0.876934	      0.095572	      0.362017	      0.095006	      0.022420	      0.067638
      0.357073	     -5.799680	     28.605717	     93.110475	    285.824203	      0.021556	      0.167028	      0.190157	      0.104003	      0.187003	      0.099067	      0.881774	      0.095376	      0.370493	      0.094776	      0.022397	      0.067554
      0.357803	     -5.778664	     28.978239	     93.319044	    285.679000	      0.021541	      0.167124	      0.191559	      0.104070	      0.188388	      0.099134	      0.886407	      0.095179	      0.378312	      0.094547	      0.022374	      0.067470
      0.358533	     -5.757377	     29.347422	     93.527527	    285.589258	      0.021527	      0.167192	      0.192834	      0.104137	      0.189647	      0.099201	      0.890841	      0.094982	      0.385537	      0.094319	      0.022351	      0.067386
      0.359262	     -5.735825	     29.705978	     93.735961	    285.543394	      0.021512	      0.167319	      0.193993	      0.104204	      0.190791	      0.099269	      0.895088	      0.094785	      0.392224	      0.094094	      0.022328	      0.067302
      0.359992	     -5.714010	     30.065404	     93.944389	    285.569814	      0.021497	      0.167360	      0.195048	      0.104272	      0.191831	      0.099337	      0.899156	      0.094587	      0.398422	      0.093870	      0.022305	      0.067218
      0.360060	     -5.711987	     30.097513	     93.963591	    285.573610	      0.021496	      0.167368	      0.195164	      0.104278	      0.191951	      0.099343	      0.899449	      0.094569	      0.397932	      0.093850	      0.022303	      0.067211
      0.360127	     -5.709962	     30.129552	     93.982794	    285.577840	      0.021494	      0.167375	      0.195282	      0.104285	      0.192075	      0.099350	      0.899726	      0.094551	      0.397236	      0.093829	      0.022301	      0.067203
      0.360463	     -5.699805	     30.288895	     94.078812	    285.605100	      0.021488	      0.167413	      0.195861	      0.104316	      0.192682	      0.099381	      0.901095	      0.094460	      0.393786	      0.093729	      0.022291	      0.067164
      0.361895	     -5.655951	     30.959285	     94.487933	    285.807120	      0.021460	      0.167571	      0.198063	      0.104449	      0.194988	      0.099514	      0.906642	      0.094074	      0.379610	      0.093325	      0.022248	      0.066999
      0.362422	     -5.639576	     31.203497	     94.638533	    285.901510	      0.021450	      0.167653	      0.198777	      0.104499	      0.195735	      0.099563	      0.908572	      0.093933	      0.374598	      0.093185	      0.022232	      0.066938
      0.362949	     -5.623071	     31.450848	     94.789185	    286.008507	      0.021439	      0.167697	      0.199444	      0.104548	      0.196433	      0.099613	      0.910445	      0.093791	      0.369690	      0.093047	      0.022216	      0.066877
      0.363704	     -5.599192	     31.803815	     95.005186	    286.161047	      0.021425	      0.167782	      0.200325	      0.104619	      0.197354	      0.099684	      0.913034	      0.093589	      0.362832	      0.092855	      0.022194	      0.066790
      0.364511	     -5.573372	     32.183239	     95.236197	    286.322515	      0.021410	      0.167888	      0.201178	      0.104696	      0.198246	      0.099760	      0.915683	      0.093373	      0.355721	      0.092656	      0.022170	      0.066697
      0.365092	     -5.554577	     32.461212	     95.402724	    286.439553	      0.021399	      0.167941	      0.201741	      0.104751	      0.198834	      0.099815	      0.917519	      0.093217	      0.350732	      0.092515	      0.022154	      0.066629
      0.365674	     -5.535620	     32.739453	     95.569317	    286.546214	      0.021388	      0.168013	      0.202264	      0.104806	      0.199379	      0.099871	      0.919296	      0.093062	      0.345853	      0.092376	      0.022137	      0.066562
      0.366318	     -5.514425	     33.052045	     95.753981	    286.657884	      0.021376	      0.168082	      0.202800	      0.104868	      0.199939	      0.099932	      0.921199	      0.092890	      0.340569	      0.092224	      0.022119	      0.066487
      0.366962	     -5.493028	     33.366240	     95.938713	    286.753890	      0.021365	      0.168187	      0.203295	      0.104930	      0.200455	      0.099994	      0.923035	      0.092718	      0.335412	      0.092074	      0.022101	      0.066412
      0.367607	     -5.471425	     33.689160	     96.123506	    286.847358	      0.021353	      0.168232	      0.203751	      0.104992	      0.200930	      0.100056	      0.924807	      0.092547	      0.330375	      0.091926	      0.022083	      0.066337
      0.368251	     -5.449614	     34.011095	     96.308351	    286.916153	      0.021341	      0.168315	      0.204172	      0.105054	      0.201369	      0.100118	      0.926517	      0.092375	      0.325456	      0.091779	      0.022065	      0.066261
      0.368812	     -5.430449	     34.295849	     96.469376	    286.965923	      0.021331	      0.168372	      0.204511	      0.105108	      0.201723	      0.100172	      0.927958	      0.092226	      0.321263	      0.091652	      0.022050	      0.066196
      0.369373	     -5.411122	     34.582037	     96.630424	    287.000131	      0.021322	      0.168444	      0.204828	      0.105162	      0.202052	      0.100226	      0.929355	      0.092077	      0.317155	      0.091525	      0.022034	      0.066130
